Coordinates
version=1
nRows=16
nColumns=30
inDegrees=yes

Units are S.I. units (second, meters, Newtons, ...)
Angles are in degrees.

endheader
time	floatyaw	floatroll	floatpitch	floatx	floaty	floatz	pro_sup_l	deviation_l	flexion_l	cmc_flexion_l	cmc_abduction_l	mp_flexion_l	ip_flexion_l	2mcp_flexion_l	2mcp_abduction_l	2pm_flexion_l	2md_flexion_l	3mcp_flexion_l	3mcp_abduction_l	3pm_flexion_l	3md_flexion_l	4mcp_flexion_l	4mcp_abduction_l	4pm_flexion_l	4md_flexion_l	5mcp_flexion_l	5mcp_abduction_l	5pm_flexion_l	5md_flexion_l
-0.495000	3.307552	-2.313296	98.008251	-0.101207	-0.189669	-0.027526	89.525586	1.771964	-1.927089	18.884049	1.334452	-21.332099	-35.180170	35.616615	8.402109	46.397283	33.005391	23.394436	4.848103	45.549096	31.520151	15.427196	-4.867707	58.896606	40.800974	13.398091	-8.648785	57.283241	40.299257
-0.485000	3.307552	-2.313296	98.008251	-0.101215	-0.189660	-0.027531	89.524233	1.777762	-1.924473	18.876596	1.329971	-21.324592	-35.169134	35.609032	8.401862	46.414731	33.014082	23.411290	4.835768	45.570156	31.522031	15.428427	-4.867131	58.910658	40.802421	13.394346	-8.636301	57.298085	40.296680
-0.475000	3.307552	-2.313296	98.008251	-0.101225	-0.189653	-0.027538	89.519905	1.781521	-1.919999	18.871447	1.331478	-21.324633	-35.168987	35.599588	8.400315	46.430587	33.018686	23.425201	4.823784	45.589191	31.518526	15.429328	-4.866645	58.938615	40.804145	13.378916	-8.617960	57.318018	40.294236
-0.465000	3.307552	-2.313296	98.008251	-0.101236	-0.189645	-0.027546	89.514203	1.784372	-1.913845	18.868428	1.336431	-21.333259	-35.180979	35.588159	8.396907	46.442547	33.018714	23.434770	4.813744	45.602409	31.511944	15.428858	-4.866208	58.971745	40.804855	13.356936	-8.594875	57.335365	40.290132
-0.455000	3.307552	-2.313296	98.008251	-0.101248	-0.189634	-0.027552	89.509383	1.787703	-1.905885	18.865354	1.341339	-21.349597	-35.201994	35.574866	8.391652	46.449083	33.014828	23.439277	4.806419	45.608064	31.504872	15.424491	-4.865427	58.999155	40.802874	13.334223	-8.570063	57.342603	40.282266
-0.445000	3.307552	-2.313296	98.008251	-0.101262	-0.189619	-0.027555	89.506986	1.792272	-1.896280	18.859255	1.343276	-21.370830	-35.225640	35.560982	8.384676	46.450151	33.008486	23.438621	4.801691	45.607674	31.499245	15.414381	-4.863893	59.012308	40.796522	13.313966	-8.546769	57.337430	40.270027
-0.435000	3.307552	-2.313296	98.008251	-0.101278	-0.189601	-0.027553	89.506953	1.797700	-1.885623	18.847884	1.340783	-21.392664	-35.244637	35.549015	8.375966	46.446962	33.001376	23.433283	4.798819	45.605179	31.496011	15.399115	-4.861482	59.008156	40.784976	13.295577	-8.527000	57.324282	40.255192
-0.425000	3.307552	-2.313296	98.008251	-0.101294	-0.189582	-0.027546	89.507986	1.802730	-1.874680	18.830771	1.333746	-21.410434	-35.253410	35.541915	8.365500	46.440948	32.994845	23.424460	4.796883	45.604356	31.495108	15.382186	-4.858476	58.989658	40.768929	13.276248	-8.510859	57.311307	40.241134
-0.415000	3.307552	-2.313296	98.008251	-0.101309	-0.189564	-0.027535	89.508887	1.806007	-1.864152	18.809438	1.322644	-21.420649	-35.249836	35.541931	8.353630	46.432605	32.989471	23.414320	4.795196	45.606228	31.495536	15.369085	-4.855469	58.963684	40.750463	13.253869	-8.496800	57.305253	40.230917
-0.405000	3.307552	-2.313296	98.008251	-0.101323	-0.189546	-0.027522	89.509699	1.806808	-1.854720	18.786790	1.307929	-21.422310	-35.235617	35.549801	8.341367	46.421062	32.984941	23.405997	4.793524	45.608402	31.495593	15.365419	-4.853139	58.937580	40.732126	13.229270	-8.482592	57.307840	40.225635
-0.395000	3.307552	-2.313296	98.008251	-0.101336	-0.189530	-0.027507	89.511667	1.805257	-1.847248	18.765929	1.290003	-21.417206	-35.215300	35.564668	8.330215	46.404840	32.980294	23.403012	4.792029	45.606949	31.493453	15.374744	-4.851968	58.916216	40.715845	13.206521	-8.466624	57.315483	40.224008
-0.385000	3.307552	-2.313296	98.008251	-0.101350	-0.189514	-0.027490	89.516217	1.802073	-1.842721	18.748874	1.269575	-21.408891	-35.194349	35.584669	8.321473	46.383464	32.974457	23.408210	4.790981	45.599572	31.487891	15.396988	-4.851978	58.900872	40.702330	13.191316	-8.448877	57.321788	40.223252
-0.375000	3.307552	-2.313296	98.008251	-0.101363	-0.189498	-0.027471	89.524076	1.798196	-1.841741	18.735766	1.247856	-21.400938	-35.177092	35.607668	8.315388	46.358817	32.966783	23.422670	4.790389	45.587760	31.478702	15.428064	-4.852516	58.890182	40.691202	13.188383	-8.430947	57.320978	40.220489
-0.365000	3.307552	-2.313296	98.008251	-0.101374	-0.189483	-0.027450	89.535175	1.794540	-1.843768	18.724894	1.226403	-21.395491	-35.165416	35.631579	8.310734	46.335116	32.957281	23.444938	4.789781	45.576449	31.466518	15.460745	-4.852246	58.882173	40.681634	13.199207	-8.415035	57.310599	40.213898
-0.355000	3.307552	-2.313296	98.008251	-0.101385	-0.189466	-0.027426	89.548937	1.791783	-1.846649	18.713451	1.206987	-21.392829	-35.158728	35.654191	8.305244	46.317229	32.946485	23.470685	4.788382	45.571493	31.452356	15.486502	-4.849554	58.876106	40.673090	13.221110	-8.402681	57.292643	40.203205
-0.345000	3.307552	-2.313296	98.008251	-0.101394	-0.189448	-0.027401	89.564268	1.790121	-1.846953	18.698613	1.191785	-21.392011	-35.154943	35.672953	8.296725	46.308287	32.935190	23.493033	4.785646	45.576817	31.437390	15.498041	-4.843443	58.873119	40.665680	13.247973	-8.394105	57.272873	40.189518
